<?xml version="1.0" encoding="utf-8"?>
<!-- Generator: Adobe Illustrator 26.0.2, SVG Export Plug-In . SVG Version: 6.00 Build 0)  -->
<svg version="1.1" id="Layer_1" xmlns="http://www.w3.org/2000/svg" xmlns:xlink="http://www.w3.org/1999/xlink" x="0px" y="0px"
	 viewBox="0 0 3000 3000" style="enable-background:new 0 0 3000 3000;" xml:space="preserve">
<style type="text/css">
	.st0{fill:#1455EB;}
	.st1{clip-path:url(#SVGID_00000135678913141791183630000015059678834087978381_);}
	.st2{opacity:0.4;fill:#448DF1;enable-background:new    ;}
	.st3{fill:#FFCC4F;}
	.st4{fill:#38D3BC;}
	.st5{fill:#FEF0FA;}
	.st6{fill:#EF7B19;}
	.st7{fill:#368BFF;}
	.st8{fill:#002891;}
	.st9{fill:#EF7CFF;}
	.st10{fill:#F3A6FF;}
</style>
<g id="BACKGROUND">
	<rect class="st0" width="3000" height="3000"/>
</g>
<g id="OBJECTS">
	<g>
		<g>
			<g>
				<defs>
					<rect id="SVGID_1_" width="3000" height="3000"/>
				</defs>
				<clipPath id="SVGID_00000146479697532039439940000016124619767002073498_">
					<use xlink:href="#SVGID_1_"  style="overflow:visible;"/>
				</clipPath>
				<g style="clip-path:url(#SVGID_00000146479697532039439940000016124619767002073498_);">
					<path class="st2" d="M-486.9,2509.4c720.9-104.8,1474-68.9,2186-201.7c463.8-86.5,900.2-243.1,1370.3-309.8
						c38.1-5.4,54.6-2.9,78.4,22.9c46.7,50.6,111.9,157.6,70,218.7c-40.5,59-194.4,61.9-271.7,74.5
						C1824,2497.7,663.4,2588.4-486.9,2509.4z"/>
					<path class="st2" d="M-261.3,1855.9c-346.9,5.9-703.6,23.1-1030.9-79c776.7-8,797.4,46.5,1898.3-94.6
						c865.3-110.9,1732.2-222,2581.2-407c-1159.6,0.6-2319.2,1.1-3478.7,1.7c1107.6-55.3,2213.3-141.6,3314.8-258.5
						c57.8-6.1,123.7-10.3,166.8,24.4c98.8,79.4,133.6,500.8-138.1,609.3c-290.1,115.8-659.2,142.3-972.2,170.6
						C1301.9,1893,520.7,1842.7-261.3,1855.9z"/>
					<path class="st2" d="M1549.2,900.1c661.4,3.2,991.1-5,1839.5-295.8C2301,787.9,1169.4,715.8,54.1,732.7
						c1135.7-111.1,1135.9-1.1,2085.8-197.8c295.5-61.2,590.9-122.4,886.4-183.6C2265.3,405,1617.6,365.7,0.7,464.4
						c-74.9,4.6-85.6,22.8-85.2,58.6c1.6,136.9-60.4,356.8,192.9,369.8C409.5,908.3,433.2,894.7,1549.2,900.1z"/>
				</g>
			</g>
		</g>
	</g>
	<g>
		<path class="st3" d="M2010.9,607.5c13.5-0.4,23.3-12.9,35.7-18.3c14.5-6.3,31.6-2.6,46.7-7.6c23.1-7.7,31.3-33.1,18.3-48.5
			c-18.3-21.6-53.4-3.6-75.6-3.9c-30.9-0.4,22.4-36.7,23.8-52.1c1.5-17.2-35.5-31.2-84.7,19.1c-19.6,20-28.7,2.1-25.3-9.4
			c3.5-11.8,21.9-26.5,13-39.8c-4.2-6.3-13.6-7.3-20.5-4.3c-18.7,8.1-48.1,63.2-60.6,59.2c-5-1.6-5.8-8.5-4.9-13.7
			c4-23.4,21.8-45.8,14.9-68.6c-2.1-7-6.5-10.6-16.7-7.4c-41.2,12.8-53.6,63.5-79.2,93.2c-7.3,8.5-17.9,10.5-18.9-2.4
			c-3.9-48.1,55.3-100.8,50.1-130.5c-1.4-8.1-8.5-17.7-23.7-9.5c-81,43.3-80.5,164-105.4,143.7c-4.4-3.5-3.4-7-4.8-52.4
			c-36.3,13.9-40.4,115.9-36.4,157.1c28.9,17.5,63.8,3.3,96.6-4.7C1835.7,586.6,1928.7,586.7,2010.9,607.5z"/>
		<path class="st4" d="M1906.7,949.9c42.9,15,80.1,8.7,86-7c5.5-14.7-15.6-38-31.9-44.1c-9.1-3.4-17.8,0.3-17.4-12
			c0.5-15.1,27.1-24.3,23.1-41.4c-3.2-13.6-19.6-19.2-33.6-20.1c-42.1-2.6-84.3,15.9-125.9,8.3
			C1721.5,817.9,1823.2,920.7,1906.7,949.9z"/>
		<path class="st3" d="M1931.7,935.4c17.1,5.9,33.3-4.7-5-28.8c-58.7-36.8-86.9-31.8-102.2-52.2c43-11,112.8,16.1,117.2-3.1
			c4.3-19.2-55.1-11.2-96.3-10.3c-56.8,1.3-55.3-10.3-74.4-9.6c-4.8,19,53.8,51,67.7,59.6C1867.8,909.2,1899.1,924.2,1931.7,935.4z"
			/>
		<path class="st3" d="M2106.4,790.8c20.9-13.3,38.9-32.3,62.8-39c6.3-1.8,14-3.7,15.8-9.9c2.7-9.4-21.5-46.4-51.5-53
			c-24-5.3-51.7,3.2-143.5,59.2c-18.3,11.1-58.2,26.8-27.2,47C2003.7,821.8,2066.6,816,2106.4,790.8z"/>
		<g>
			<path class="st4" d="M2448.4,619.9c-9.9,29.3-22.6,59.4-46.5,78.9c-52,42.5-122.1,21.6-180.9-12.2c-18-10.4-36.3-22.1-57-24
				c-17.3-1.6-35.3,3.7-52-1.3c-26-7.9-41.9-41.7-10-51.8c33.9-10.8,59.8-23.3,85.6-48.9c40.9-40.5,95-126.4,204.1-106.9
				c-1.1,9.1-2.9,17.4-5.3,24.9c-7.9,24.6-22.2,41.1-37.3,53.9c-19.4,16.4-40.3,26.6-50.8,39.8c-12.1,15.2-14.3,41.3,2.2,51.7
				c20,12.6,44.7-7.4,88.8-10.5c15.1-1,32.5-0.1,52.7,4.8C2444.1,618.8,2446.2,619.3,2448.4,619.9z"/>
			<path class="st5" d="M2386.4,478.5c-7.9,24.6-22.2,41.1-37.3,53.9c-10.4,1.8-22.6,4.6-37.2,9.4c-78.6,25.6-105.8,63.6-119.6,50.4
				c30.7-60.6,95.9-89.9,162.2-105.6C2363.3,484.4,2375,480,2386.4,478.5z"/>
			<path class="st5" d="M2442,618.3c-4.8,10.7-14.4,23.4-30.6,37.5c-28.6,24.9-54.6,30.5-90.8,30.9c-32.9,0.4-68.2,0.1-95.4-18.4
				c-9.9-6.7-3.9-14.1,0.4-16.2c11.1-5.5,57.6,5.4,107-7.1c30.7-7.8,46.5-19.9,56.8-31.4C2404.4,612.4,2421.7,613.4,2442,618.3z"/>
		</g>
		<g>
			<path class="st5" d="M2148.6,644.2c-4.9,7.5-9.7,14.5-14.6,21.2l0,0c-6.7,9.3-13.5,17.8-20.2,25.7
				c-22.9,26.9-45.6,46.1-67.9,60.9c-46.1,30.6-90.4,42.3-131,63.6c-19,10-37.2,21.5-57.1,29.3c-68.3,26.8-196.9,7-246.3-11.7
				c-18.1-6.8-72.7-28.3-79.5-46.6c-2.9-7.9-1.2-14.3,3.6-21.2c6.7-9.7,19.6-20.4,34.3-37.3c10-11.5,20.9-25.9,31.3-44.7
				c0.7-1.3,1.4-2.6,2.2-3.9c7.9-14.9,15.5-34.9,32.1-54.7c7.5-8.9,16.8-17.9,28.9-26.3c13.2-9.2,29.7-17.9,50.6-25.2
				c11.3-4,28.1-8.2,47.4-12.4l0,0c42.8-9.1,98.1-17.6,134.1-20.7c10-0.9,18.5-1.3,24.8-1.2c16.9,0.2,31.9,1.8,45.5,4.5l0,0
				c40.1,7.8,67.5,24.1,90.5,36.9c11,6.1,21,11.4,30.9,14.6C2110.4,601.7,2172.4,607.6,2148.6,644.2z"/>
			<g>
				<path class="st6" d="M1721.1,820.7c-53.2,0.4-106.3-12.3-153.8-36.1c-8.1-4.1-21.9-10.6-31.7-19.3c6.7-9.7,19.6-20.4,34.3-37.3
					c4.8,1.6,9.2,3.6,12.5,5.4c13.3,7.5,25.4,17.4,39.6,22.9c40.3,15.5,96.6-8.5,124.1,19.3C1757.4,787,1765.3,820.4,1721.1,820.7z"
					/>
				<path class="st6" d="M1601.2,683.2c0.7-1.3,1.4-2.6,2.2-3.9c7.9-14.9,15.5-34.9,32.1-54.7c9,4.4,16.1,12.7,18.6,25.1
					C1660.9,683.6,1625.4,692.6,1601.2,683.2z"/>
				<path class="st6" d="M1765,633.6c-21.3,19.1-65.2,10.4-85.9-10.4c-8.9-8.9-13.5-17.3-14.8-25c13.2-9.2,29.7-17.9,50.6-25.2
					c11.3-4,28.1-8.2,47.4-12.4l0,0c3.5,3.7,6.4,8.3,8.8,13.6C1783.5,600.6,1777.6,622.3,1765,633.6z"/>
				<path class="st6" d="M1815.3,635.2c-10-21.6-1.6-43.4,9.6-49.1c16.2-8.4,61,5,72.5,43.7c5.6,18.9-2.3,45.5-25.4,45.7
					C1849.9,675.6,1824.1,654.2,1815.3,635.2z"/>
				<path class="st6" d="M1939.7,624.5c-37.4-26.7-49.1-62.3-43.1-84.4c10-0.9,18.5-1.3,24.8-1.2c16.9,0.2,31.9,1.8,45.5,4.5l0,0
					c1,1,2.1,2,3.1,3C2038.8,614.4,1994.2,663.3,1939.7,624.5z"/>
				<path class="st6" d="M2148.6,644.2c-4.9,7.5-9.7,14.5-14.6,21.2c-8.2-0.8-16.4-3.9-24.4-6.2c-10.6-3-21.8-4.7-31.7-9.7
					c-21.3-10.8-37.9-43.8-23.1-66.1c0.8-1.1,1.6-2.2,2.6-3.1c11,6.1,21,11.4,30.9,14.6C2110.4,601.7,2172.4,607.6,2148.6,644.2z"/>
				<path class="st6" d="M2113.8,691.1c-22.9,26.9-45.6,46.1-67.9,60.9c-26.9-16.2-45.1-68.7-13.1-80.6c9.1-3.4,58-4.6,77.9,15.9
					C2111.9,688.5,2112.9,689.8,2113.8,691.1z"/>
				<path class="st6" d="M1747.6,675.1c29.8-6.2,95-8.4,92.7,35.3C1835.3,806.9,1662.8,692.6,1747.6,675.1z"/>
			</g>
		</g>
		<path class="st4" d="M1883.1,624.7c15-6.2,35.4-2.6,42.4,12.1c6.4,13.3,0.5,31.9,11.4,41.9c7.1,6.5,18,5.8,27.3,8.1
			c29,7.2,59.3,65.5-23.4,89.1c-44.7,12.8-137.8,25.1-164.2,8.1c-27.1-17.5,0.3-37.8,12.8-53.6
			C1857.9,643.7,1864.2,632.6,1883.1,624.7z"/>
		<path class="st3" d="M1901,640.6c5.6-2,16.4-0.1,12.6,13.1c-9.4,32.5-41.8,52.3-60.5,80.6c-4.8,7.3-1.7,11.4,6.1,10.9
			c36.2-2.8,56.1-35.8,113.4-42.9c7.7-0.9,8.8,3.9,5.5,9.5c-16.8,27.9-71.9,42.2-103.9,51.5c-18.7,5.4-104.7,23.8-69-17.1
			C1896.2,642.2,1894,643.1,1901,640.6z"/>
		<path class="st7" d="M1656.5,767.3c59.2-23.2-1.5-102.9-41.1-60.3c-11.4,12.3-12.9,32.7-3.5,46.5
			C1621.4,767.4,1640.9,773.4,1656.5,767.3z"/>
		<path class="st8" d="M1662,722.7c-1.3,13.9-29.1,37.3-41.7,23.3C1601.8,725.7,1665.3,688.4,1662,722.7z"/>
	</g>
	<g>
		<g>
			<path class="st9" d="M1122.9,1146.6c-25.4,16.9-50.7-33.4-113.5-98.5c-90.7-94-265.6-144.5-479.2-22.1
				c-37.5-55.2-96.4-45.3-112.2-49.4c-22.7-5.9-33.7-28.5-31.5-33.5c2.3-5.2,47.3-31.5,97.8-15.1c-30.8-17.3-67.8-23.1-101.8-13.6
				c0-11.5,4.5-22,11.8-30.7c11.2-13.4,28.9-22.6,46.6-24.6c29.2-3.3,57.9,7.5,85.2,18.1c6.2-10.6-6.1-22.4-17.2-27.5
				c-27.4-12.5-58.3-17.4-88.2-13.8c6.2-8.7,13.8-16.1,22.5-22.1c30.3-20.9,72.9-24.8,105.2-6.5c13.1,7.4,52.3,40.7,66.7,31.3
				c8.1-5.3,1.5-17.9-5.8-24.3c-18.1-15.8-39-28.4-61.4-37.1c1.5-11.2,12.6-17.3,23.9-20.9c2.2-0.7,4.5-1.3,6.7-1.8
				c22.4-5.4,45.2-9.6,68-12.6c19.1-2.5,38.3-4.3,57.6-5.2l0,0c31.5-1.5,63.1-0.8,94.6,2.1c11.1,1,22.3,2.3,33.3,3.9
				c9.7,1.4,18.5,3,26.5,5c102.2,24.6,76.6,91.7,115,148.4c1.1,1.6,2.2,2.9,3.3,4c8,7.6,15.8,0.9,14.7-12.6
				c-2.5-31-13.9-61.3-32.5-86.3c18.8-4.1,38.4-1.1,55.8,7c25,11.6,45.2,33.8,51.6,60.7c7.2,30.7-1.9,63.1,2.7,94.2
				c17.6-29.6,22.9-66.2,14.4-99.6c10.9,3.6,20.2,7.4,28.1,11.4c16.2,8.1,26.3,17,32,26.5l0,0c23.8,39.5-28.6,89.7-33.8,143.1
				c21.2-22.8,39.9-48,55.4-75c3.4,11.7,5.6,24.7,6.7,38.3C1175.7,1060.5,1161.5,1120.9,1122.9,1146.6z"/>
			<path class="st3" d="M612.3,923.6c-11.6,46.2-90.9-45.8-218.1-39.9c11.2-13.4,28.9-22.6,46.6-24.6c29.2-3.3,57.9,7.5,85.2,18.1
				c6.2-10.6-6.1-22.4-17.2-27.5c-27.4-12.5-58.3-17.4-88.2-13.8c6.2-8.7,13.8-16.1,22.5-22.1c48.1,10.3,95.3,24.4,135.8,51.8
				C598.6,879,618.1,900.5,612.3,923.6z"/>
			<path class="st3" d="M694.2,878.5c-28.8-34.1-57.4-68.7-90.6-98.7c-5.7-5.2-20.6-14.2-31.9-23.3c2.2-0.7,4.5-1.3,6.7-1.8
				c22.4-5.4,45.2-9.6,68-12.6c40.5,39.5,75.6,86.5,85.3,141.8C735.6,906.3,714.9,902.9,694.2,878.5z"/>
			<path class="st3" d="M825.1,894.8c-14.3-4.4-14.2-24-73-102.3c-5.8-7.8-33.7-35.5-48.1-55.7c31.5-1.5,63.1-0.8,94.6,2.1
				c23.9,31.8,43.3,79,49.4,116.5C853.9,891.9,833.6,897.4,825.1,894.8z"/>
			<path class="st3" d="M976.7,905.4c-1.1,23.5-17.6,26.9-29.7,21.1c-25.5-12.2-37.5-67.5-45.1-91.1c-13-40.7-31.3-68.9-43.6-87.5
				c102.2,24.6,76.6,91.7,115,148.4c1.1,1.6,2.2,2.9,3.3,4C976.8,902,976.8,903.8,976.7,905.4z"/>
			<path class="st3" d="M1111.4,875c-6.2,41.8-17.8,82.8-34.6,121.6c-2,4.6-4.8,9.7-9.8,10.3c-8.1,1-33-15.4-37.4-54.7
				c-4.1-36.7,8.5-65.3-5.8-120.6c-1.5-5.7-6-14.8-9.2-23.4c25,11.6,45.2,33.8,51.6,60.7c7.2,30.7-1.9,63.1,2.7,94.2
				c17.6-29.6,22.9-66.2,14.4-99.6C1094.3,867.2,1103.6,871,1111.4,875z"/>
			<path class="st3" d="M1171.7,1007.9c-13.6,34.8-34.8,80.1-58.6,72c-9-3.1-13.7-13.2-15.2-22.6c-4.3-26.9,8.3-53.2,18.7-78.4
				c10.1-24.4,6.9-50,22.3-72.3c1.2-1.8,2.8-3.6,4.5-5.1c23.8,39.5-28.6,89.7-33.8,143.1c21.2-22.8,39.9-48,55.4-75
				C1168.4,981.4,1170.6,994.4,1171.7,1007.9z"/>
		</g>
		<g>
			<path class="st3" d="M509.1,1131.9c-2,21.2-15.8,41.9-36.1,48.5c-10.1,3.3-21,3-31.6,4.4c-45.8,6.3-80.1,43.3-115.9,72.5
				c-35.2,28.7-61.9,34.8-80,28.2l0,0c-18.2-6.6-27.8-25.8-29-47.5c-0.8-14,1.9-28.9,8.1-42.2c8.2-17.7,22.9-35.8,16.6-54.2
				c-1.4-4-3.7-7.5-6.3-10.8c-4.8-6-10.9-11.4-15-18c-10-15.8-6.8-38.8,7.3-51.2c3.4-3,7.3-5.4,11.3-7.6
				c10.6-5.9,22.2-10.5,28.2-20.8c4.7-8.2,4.5-18,3.9-28c-1-18.5-2.9-37.9,24.3-49.4c3.4-1.5,6.8-2.6,10.2-3.5
				c57.2-14.6,106.5,50.6,127.7,74.1C463.5,1060.8,514.3,1077.2,509.1,1131.9z"/>
			<path class="st5" d="M389.9,1168.9c-5.7,9.5-22,10.4-108.1,91.4c-11.8,11.1-23.4,20.7-36.3,25.2l0,0c-18.2-6.6-27.8-25.8-29-47.5
				c37-35.6,114.3-78.1,136.9-83.9C366.2,1150.8,403.5,1146.2,389.9,1168.9z"/>
			<path class="st5" d="M387.9,1131.1c-109-13.6-125.7-0.4-153.1-0.4c-4.8-6-10.9-11.4-15-18c-10-15.8-6.8-38.8,7.3-51.2
				c3.4-3,7.3-5.4,11.3-7.6C414.2,1055.6,431.9,1136.6,387.9,1131.1z"/>
			<path class="st5" d="M402.4,1067.9c-62.5-25.3-105.9-44-132-62.7c-1-18.5-2.9-37.9,24.3-49.4c3.4-1.5,6.8-2.6,10.2-3.5
				c10.2,9.4,18.3,21.3,27.9,31.5c36.5,38.6,79.4,41.3,88.6,70.2C425.2,1065.8,419,1074.6,402.4,1067.9z"/>
		</g>
		<g>
			<path class="st9" d="M528.6,1510.8c-19.2,8.3-39.4,10.4-67.3,10.2l0,0c-19.5-0.2-42.9-1.5-72.4-2.6
				c-33.7-1.3-34.3-16.5-31.9-48.3c1-13.8,0-25.7-2.2-36.1l0,0c-2.3-10.9-5.9-20.4-9.8-29.2c-6.8-15.3-14.5-28.6-18-43.8
				c-1.8-8-2.4-15.8-2-23.3c3.9-70,96.2-117.4,125-113.5c40.3,5.5,52.3,111.3,89.8,164.5c12.1,17.2,28.5,32.9,32.3,53.7
				C577.5,1471,555.4,1499.2,528.6,1510.8z"/>
			<path class="st3" d="M425.7,1328.7c-5.7,15.5-50.4,52.8-80.6,76c-6.8-15.3-14.5-28.6-18-43.8c-1.8-8-2.4-15.8-2-23.3
				c32.8-26.2,86.1-36.7,96.8-27.9C427.2,1314,428.1,1322.2,425.7,1328.7z"/>
			<path class="st3" d="M496.5,1488.4c-8.4,11-21.2,22.4-35.2,32.6l0,0c-19.5-0.2-42.9-1.5-72.4-2.6c-33.7-1.3-34.3-16.5-31.9-48.3
				c1-13.8,0-25.7-2.2-36.1l0,0c13.2-15.3,32.2-30.6,58.5-44.9c19.4-10.5,35.1-4.8,29.5,17.2c-9,35-46.3,74.6-26.1,75.8
				c26.1,1.6,46.7-27.2,72.9-25.9C507.6,1456.9,507.1,1474.4,496.5,1488.4z"/>
		</g>
		<path class="st3" d="M766.6,1525.7c9.9,1.7,18.9-0.3,15.9,11.4c-7.8,30.1-63.9,56.4-94.9,83.9c-17.9,15.9-28.6,36-50.7,48.5
			c-42.2,23.8-104.7-5.8-108.1-11.7c-12.5-21.5,89.5-34.9,122.2-87.7c15.5-25-30.5-5.4-59.9,25.1c-24.3,25.3-83.3,54-111.6,35.4
			c-10.2-6.7-13.5-14.2-44.1-64.9c68-14.7,130.1-55.3,170.8-111.6c4.7-6.6,11.4-0.7,18.9,2.4
			C705.9,1489.4,731.8,1519.8,766.6,1525.7z"/>
		<g>
			<path class="st9" d="M887.3,1562.3c-9.9,47.3-47.8,87.2-74.2,125.2c-12.9,18.6-21.6,39.7-33.2,59.1
				c-31.3,52.3-66.1,54.2-101.5,47.6c-20.5-3.8-41.2-10.4-61.6-11.7c-11.2-0.8-22.3,0.1-33.2,3.8c-23.4,7.9-44.9,29.1-68.9,23
				c-11.3-2.9-12.7-10.4-8.9-20.8c18.2-49.9,68.8-79.6,117.1-101.8c85.4-39.3,123.8-53,162.5-147.1c6.1-14.8,9.2-20.2,24.6-23.9
				c8.8-2.1,17.8-3,26.3-3c11-0.1,21.3,1.2,29.8,3.3c10.6,2.5,18.3,6.2,20.7,9.6C892,1532.5,889,1553.7,887.3,1562.3z"/>
			<path class="st3" d="M697.3,1771.6c-5.2,6-11.6,14.5-18.9,22.6c-20.5-3.8-41.2-10.4-61.6-11.7c0.3-0.6,0.6-1.2,0.9-1.8
				c16.4-29.3,64.5-40.6,138.4-114c73.2-72.7,75.6-129.1,80.3-154c0.8-4.4,1.7-7.8,3-10.1c6.2-10.9,24-14.9,26.5,10.2
				c0.1,1.1,0.2,2.1,0.3,3.2C875.1,1629.8,757.3,1702.3,697.3,1771.6z"/>
		</g>
		<g>
			<path class="st4" d="M1168.6,1447.1c-0.6,1-1.2,2-1.8,2.9c-15.2,23.6-37.8,40.6-62.7,53.8c-17.5,9.3-36.2,16.7-54.3,23.2
				c-2.6,0.9-5.2,1.9-7.8,2.8c-30.9,10.8-60.5,21-91.2,27.4c-19.8,4.1-40.1,6.7-61.4,7c-37.9,0.4-74.2-3.8-108.7-12l0,0
				c-94.3-22.3-174.6-74-233-139.2c-22.7-25.3-42.1-52.7-57.7-81.2l0,0c-19.5-35.6-33.2-72.9-40.1-110.2l0,0
				c-6.9-37-7.1-73.9,0.1-109.1c4.3-20.9,2.5-36,16.2-54.1c73.1-96.5,203.5-129.3,314.8-132.6c47.2-1.4,90.9,2.5,125.4,9l0,0
				c18.2,3.5,33.9,7.7,46.1,12.3c30.9,11.6,58.6,29.2,82.6,50.5c20.6,18.3,38.5,39.3,53.6,61.7c11.3,16.8,21,34.4,29,52.1
				c10.1,22.4,17.5,45,22,66.8c0.2,1.2,0.5,2.3,0.7,3.5c24,122.9,16.3,168.3,29.1,213.3C1175.7,1416.8,1180.5,1427.4,1168.6,1447.1z
				"/>
			<g>
				<path class="st5" d="M608.2,1150.7c-29.7,52.2-95.9,70-109.4,151.3c-1,6.3-2.2,20.7-8.9,29.7c-19.5-35.6-33.2-72.9-40.1-110.2
					l0,0c19-60.9,54.8-148.9,101.6-163.1c6.1-1.8,15.1-0.9,15.8,5.4c2.1,18.2-73.8,96-34.1,92.9c22.5-1.8,32-28.8,52.4-36.1
					C599.6,1115.6,623.3,1124.2,608.2,1150.7z"/>
				<path class="st5" d="M780.6,1552.1L780.6,1552.1c-94.4-22.3-174.6-74-233-139.2c-2.6-11.5-4.7-24.3-6.5-38.8
					c-9.3-74.8,27.9-165.4,53.2-130.3c15.3,21.3,6.4,116.2,44.5,173.1c4.5,6.7,12.8,13.6,19.5,9.2c10.8-6.9,5.6-46.8,6.9-70.4
					c2.4-43.2,28.1-60.5,41.9-55.9c30.4,10.2,21,134.1,50.5,196.6C764.5,1511.1,783.1,1540.6,780.6,1552.1z"/>
				<path class="st5" d="M906.3,934.8c-12.9,4.7-28.9,7.8-34.1,9.3c-25.9,7.5-48.7,19.5-70.2,35.8c-45.9,35-121.9,121.6-148.7,103
					c-22-15.3,9.8-77.9,60.2-117.7c16.7-13.2,40.9-27.6,67.4-39.5C828.1,924.4,871.8,928.3,906.3,934.8z"/>
				<path class="st5" d="M1088.6,1059.2c-18.8,21.3-91,13.3-160.2,63.8c-47.6,34.7-86.8,98.7-119,105c-15.2,2.9-36.2-6.4-27.6-32.3
					c15.2-45.4,70.6-56.6,69.2-78.9c-1.7-27.3-63.4,11.1-101.5,60.2c-8.8,11.3-32.3,46-51.1,47.7c-11.6,1.1-26.1-9.6-24-37
					c4.9-64.3,61.4-103.7,119.1-131.7c71.5-34.6,151.5-59.4,230.9-59.5c3.1,0,6.6,0.3,10.5,1
					C1055.6,1015.8,1073.6,1036.9,1088.6,1059.2z"/>
				<path class="st5" d="M1139.7,1178.2c-25.6,28.8-72.8,34.3-101.1,39.7c-41.5,8-100.1,24.6-120.6,61.6
					c-8.7,15.8-9.9,36.7,0.8,51.2c11.6,15.8,56.5,34.4,38.5,48.3c-24.3,18.8-68.5,14.3-99.7-35.7c-30.4-48.8-19.4-90,22.2-128.8
					c77.8-72.4,181.9-74.3,214.7-87.2c6.8-2.7,14.9-10,23.1-15.8C1127.8,1133.7,1135.2,1156.4,1139.7,1178.2z"/>
				<path class="st5" d="M1049.7,1527c-2.6,0.9-5.2,1.9-7.8,2.8c-30.9,10.8-60.5,21-91.2,27.4c-212.6-103.1-208.6-248.5-167.3-239.1
					c41.5,9.4,63.3,54.2,81,82.6c71.1,113.7,130.5,80.8,182.6,123.9C1048,1525.4,1048.9,1526.2,1049.7,1527z"/>
				<path class="st5" d="M1166.7,1450c-15.2,23.6-37.8,40.6-62.7,53.8c-21.3-6-43.7-20.9-64.7-39.5c-38-33.5-33.3-65-26.6-68.3
					c9.3-4.7,47.4,22.2,53,25.6C1115.7,1452,1151,1446.1,1166.7,1450z"/>
			</g>
		</g>
		<path class="st7" d="M1048,1358.2c26,21,71.2,19.2,71.6-11.3C1121.1,1224.1,965.2,1291.3,1048,1358.2z"/>
		<path class="st8" d="M1062.7,1340.7c-15.9-11.2-17.5-30.4-9.1-38.5c15.5-15,51.3,12.3,48.3,36.1
			C1099.5,1358.6,1074.5,1349,1062.7,1340.7z"/>
	</g>
	<g>
		<g>
			<path class="st5" d="M1312,1354.5c8.1-77.6,26.6-161.1,86.4-211.3c12.6-10.5,20.4,0.3,21.6,7.1c1.2,6.6-1.1,13.2-3.2,19.6
				c-54.9,162.3-35,348.3,53,495.2c15.7,26.1,33.9,52.7,35.8,83.1c1.7,28.1-13.1,56.3-35.9,72.4c-30.8,21.8-45.6-1.4-64.9-26.2
				C1308.7,1670.8,1295.8,1509.4,1312,1354.5z"/>
			<path class="st3" d="M1560.7,1718.9c-14.6,13.7-45.3,20.2-61.5,6.8c-51.6-42.6-28.1-326.1,28.7-444
				c27.8-57.7,74-109.1,134.4-130.8c-25.7,72.1-152.5,141.6-91.6,503.2C1574.5,1676.7,1577.4,1703.3,1560.7,1718.9z"/>
			<path class="st5" d="M1693.8,1246.3c29.4-46.5,67-94.6,121-105.4c1.1,12.1-6.2,23.1-12.9,33.1
				c-83.9,124.3-143.6,271.6-132.2,421.2c2.5,32.6,9.7,77-17.7,102.2C1588.4,1755.7,1505.9,1543.9,1693.8,1246.3z"/>
			<path class="st3" d="M1673.8,1637.4c-12-262.2,170.8-472.9,272.4-479.9c19.6-1.3,41.5,11.4,17,33.5
				c-118.2,106.6-193.1,259.9-204.8,418.6c-1.6,21.7-2.4,44.8-14.3,63.1c-9.6,14.8-34.9,28.1-52.3,18.4
				C1675.1,1681.7,1674.5,1654.3,1673.8,1637.4z"/>
			<path class="st5" d="M1824,1505.9c178.8-313.3,381.7-256.1,316.3-221.2c-141.2,75.5-247.3,213.7-283.8,369.5
				c-5.6,24.1-12.8,53.5-39.4,61.8c-24.1,7.5-42.3-6.9-49.8-29.2C1748,1629.4,1796.9,1553.5,1824,1505.9z"/>
			<path class="st3" d="M1895.8,1592.6c84.4-174.3,277.7-254.5,345.1-220.6c-3.6,30.3-257.6,112.7-314.9,316.5
				c-7.2,25.7-43,72.5-56.5,25.2C1859,1676.4,1880,1625.4,1895.8,1592.6z"/>
			<path class="st5" d="M2329.8,1497.8c25-1.2,52.9,0.1,70.8,17.6c-220.9,91.8-291.7,123.9-338.6,186.3c-11,14.6-20,30.6-32.3,44.1
				c-23.6,25.9-72.5,37.4-91.2-1.8C1910.6,1685.8,2067.1,1510,2329.8,1497.8z"/>
			<path class="st3" d="M2388.2,1613.8c16.7,1.1,38.5,8.5,36.9,25.2c-104.4,27.6-215.5,59.3-285.8,141.3
				c-17.1,19.9-37,49.2-65.8,51.4c-33.4,2.5-50.6-26.4-37.2-54.1C2083.3,1679.8,2197.9,1601.7,2388.2,1613.8z"/>
			<path class="st5" d="M2414.7,1762.2c-197.2,55.7-197.8,102.4-237,137c-19.9,17.4-61.2,29.1-75-2.5
				C2080.2,1845,2243.8,1705.3,2414.7,1762.2z"/>
		</g>
		<g>
			<path class="st4" d="M2227.8,2416c-0.3,0.1-0.5,0.2-0.8,0.3c-5.3,2.1-11.3,2.8-16,6c-3.3,2.3-5.7,5.4-7.6,9
				c-3.1,5.7-5.2,12.4-9.1,17.7c-3.7,5.1-9.3,9.5-16.8,11.8c-13.4,4.1-32.5,1.3-56.3-16.9c-33.4-25.5-102.2-97.9-61.7-142.7
				c45.6-50.5,134.7-4.4,168.3,36.5c7.8,9.5,13,18.4,16,26.5C2254.1,2391.7,2240.8,2410.5,2227.8,2416z"/>
			<path class="st5" d="M2203.4,2431.3c-3.1,5.7-5.2,12.4-9.1,17.7c-3.7,5.1-9.3,9.5-16.8,11.8c-7.8-6-14.4-12-17.9-14.3
				c-41.2-27.2-46.1-60.1-43.1-66.1C2124.6,2364.5,2181.2,2411.9,2203.4,2431.3z"/>
			<path class="st5" d="M2227.8,2416c-0.3,0.1-0.5,0.2-0.8,0.3c-22.5-11.2-42.2-31.3-60-47.3c-7.7-6.9-15.5-14-20.8-22.8
				c-2.3-3.8-1.9-6.2,2.5-8.1c15.4-7,33.4-3.2,49.8,1.3c20.8,5.8,34.8,13.1,45.4,25C2254.1,2391.7,2240.8,2410.5,2227.8,2416z"/>
		</g>
		<g>
			<path class="st5" d="M1808,2680.9c0.1,20.4-10.7,35.8-22.4,42.7c-8.9,5.2-18.7,6.6-28.9,5.9c-12.8-0.9-26.1-5.4-38.1-10.2
				c-9.9-4-19.8-8.2-29.5-12.7l0,0c-27.1-12.3-53.4-26.3-78.7-41.9c-3.1-1.9-6-3.8-8.9-5.6c-70.4-46.2-69.4-82.7-57.6-140.3
				c7.4-35.7,9.4-158,69.7-148.8c43.4,6.6,50.5,64.5,55.5,87.5c22.2,103.4,67.8,124.3,101.9,155.5
				C1798.2,2638.2,1807.9,2661.8,1808,2680.9z"/>
			<path class="st4" d="M1689,2706.6c-27.1-12.3-53.4-26.3-78.7-41.9c-3.1-1.9-6-3.8-8.9-5.6c-7.7-29.8-11.6-60.2-14.4-76.6
				c-5.1-31.1-7.7-63.2-0.6-93.9c2.8-12.1,11.3-20.5,20.3-10.7c15,16.1,17.7,39.7,21.9,61.2
				C1643.2,2612.8,1679.9,2671.8,1689,2706.6z"/>
			<path class="st4" d="M1808,2680.9c0.1,20.4-10.7,35.8-22.4,42.7c-8.9,5.2-18.7,6.6-28.9,5.9c-36-29.1-76.5-125.2-93.8-167.1
				c-12.5-30.2-31.5-51.9-35.7-85.7c-5.3-42.4,56.1,89.7,133.3,161.7C1774.4,2651.5,1793.7,2666.7,1808,2680.9z"/>
		</g>
		<g>
			<path class="st4" d="M2668.2,2086.2c-36.3,19.8-82.2,19.8-115.2,44.7c47.2,30.4,87.5,70.5,111.8,115.1
				c11.2,20.6,19,42.2,22.4,64.1c5.5,35.6-0.5,72.3-21.9,107.8c-1.1,1.9-2.3,3.8-3.6,5.7c-11.8,18.1-27.5,34.6-32.6,55.7
				c-2.5,10.5-2.1,21.3-0.1,32c7.9,44,40.9,84.9-3.7,83.6c-60.9-1.9-167.2-89.9-211.9-131.3c-108-100.1-79.7-198-150-252.7
				c-31.1-24.2-67.3-29.5-42.2-119.4c17-61,40.2-43.4,70-60.5c99.7-57.1,12.4-178.3,276.2-331.6c35.2-20.4,73-39.4,113.7-40.5
				c19.5-0.5,31.9,5,38.7,24.4c5.9,17,3.6,33.8-1.8,50.7c-9.3,28.7-27.8,57.7-30.8,88c-0.1,0.6-0.1,1.2-0.2,1.8
				c-2.3,28.9,9.4,56,20.9,83.3c8.1,19,16.1,38.1,19.3,58.1c0.3,1.7,0.5,3.5,0.7,5.3C2733.4,2016.2,2708.7,2064.1,2668.2,2086.2z"/>
			<path class="st5" d="M2717.9,1733.9c-9.3,28.7-27.8,57.7-30.8,88c-0.1,0.6-0.1,1.2-0.2,1.8c-71.6,34.5-143.9,67.5-216.9,98.9
				c-5.8,2.5-13.2,4.8-17.9,0.6c-21-18.8,78.5-89.5,106.1-107.1C2605.1,1786.4,2660.2,1742.1,2717.9,1733.9z"/>
			<path class="st5" d="M2727.2,1965.1c-236.6,69.6-236.2,73.1-245,63.1c7.2-17.5,24.9-28.1,41.6-37.1
				c57.1-30.7,120-67.1,184.1-84.1C2716,1926,2724,1945.2,2727.2,1965.1z"/>
			<path class="st5" d="M2687.1,2310.1c-0.4-0.1-0.8-0.2-1.2-0.4c-15.2-4.8-32.6-6.2-48.3-8.7c-26.1-4.1-53.8-10.4-80.2-10.1
				c-96.8,1.2-94.7-50.6-43.4-54.9c22.8-1.9,99.1,2.3,150.6,9.9C2675.9,2266.6,2683.7,2288.1,2687.1,2310.1z"/>
			<path class="st5" d="M2665.3,2417.9c-1.1,1.9-2.3,3.8-3.6,5.7c-11.8,18.1-27.5,34.6-32.6,55.7c-2.5,10.5-2.1,21.3-0.1,32
				c-15.9-12.6-31.3-28-46.3-39.6c-31.9-24.8-63.9-51.3-83.9-86.3c-11.5-20.2,4.3-28.4,13.2-29.4c8.6-1,17.1,2.1,25.2,5.2
				C2578.7,2376.6,2631.7,2391.5,2665.3,2417.9z"/>
		</g>
		<path class="st10" d="M2336.6,2154.4c-3.1,65.4-56.8,101.9-111.7,124.9c-151.3,63.2-301.3,143.8-465.6,156.8
			c-4.4,0.3-8.8,0.6-13.1,0.9l0,0c-73.2,4.2-146.5-4.5-219.4-13.2c-2.5-0.3-4.9-0.6-7.4-0.9c-123.8-15.6-121.2-36.3-154.9-54.9
			c-0.6-0.3-1.2-0.7-1.8-1c-16.8-8.8-36.7-13-53.7-22.3c-33.2-18.2-61.4-44.9-82.2-74.9c-37.2-53.4-51.1-116.8-29.1-159.2
			c7.8-15,19.8-27.4,27.9-42.1c5.9-10.7,9.3-20.7,11.8-30.5c9.1-35.7,6-69.3,65-130.4c1.1-1.2,2.3-2.4,3.5-3.6
			c15.7-15.9,34.9-25.6,53.1-37.2c9-5.7,17.8-11.9,25.8-19.4c16.5-15.7,25.7-36.5,34.2-57.9c6.8-16.9,13.2-34.1,22.6-49.4
			c16.6-26.9,41.5-48.1,70.1-64.3c41.2-23.4,90.1-36.6,133-41.6c3.6-0.4,7.2-0.8,10.8-1.1c123.4-10.5,278.6,41.6,330.6,65.7
			c54.1,25,99.9,61.3,140,103.1c28.7,29.9,54.5,62.7,78.4,96.1c24.8,34.8,47.6,70.3,69.2,104
			C2303.1,2048.1,2339.3,2096.7,2336.6,2154.4z"/>
		<path class="st6" d="M1715.8,2096.9c32.6-13.5,64.7-34,66.7-69.2c0.7-13.4-6.6-46.7-17.9-56.3c-6.1-5.2-14.5-7-22.5-7.8
			c-43.9-4.3-84.7,15.8-124.9,30.2c-24.3,8.8-88.2,9.5-92.7,40.9c-4.5,30.5,33.4,61.5,57,71.9
			C1624.7,2125.6,1674.1,2114.1,1715.8,2096.9z"/>
		<g>
			<path class="st6" d="M2204.3,1898c-2.8,16.3-8.2,31.1-16.1,41.5c-34,44.8-122.1,51.5-143.1,46.2c-56.1-14.2-13-85.4,24.9-129.2
				c11.9-13.7,33-39.5,56-54.5C2154.7,1831.8,2180.5,1864.6,2204.3,1898z"/>
			<path class="st6" d="M1898,2010.3c-11.4,14-37.4,32.5-50.6,20.6c-16.2-14.6,15.9-74.5-12.2-171.5c-10.9-37.7-26.2-72.6,0.9-108.9
				c30.3-40.7,110.9-4.7,117.1,70.3C1956.7,1863.1,1928.3,1973.4,1898,2010.3z"/>
			<path class="st6" d="M1721.1,1784.2c-25.7,3.9-51.3-6.1-75.1-16.7c-23.4-10.5-101.2-52.3-134.4-91.6
				c41.2-23.4,90.1-36.6,133-41.6c3.6-0.4,7.2-0.8,10.8-1.1C1709.4,1669,1792.2,1773.4,1721.1,1784.2z"/>
			<path class="st6" d="M1692.2,1846.6c23.8,13.3,22.1,45.1-3.3,56C1630.8,1927.4,1632.4,1813.1,1692.2,1846.6z"/>
			<path class="st6" d="M1946.3,2300.6c-4.1-23.6,28.1-47.2,49.5-32.8c18.3,12.4,10.9,57-11.3,62
				C1970,2333,1949.5,2318.9,1946.3,2300.6z"/>
			<path class="st6" d="M1650.2,2261c0.5,9.3-3.6,21.2-12.9,21.2c-21.1,0-57.7-66.4-31.3-96.8c14.2-16.3,38.3-17.2,45.2-9.3
				C1663.1,2189.6,1649.1,2238.5,1650.2,2261z"/>
			<path class="st6" d="M1589.3,1887.8c-10.4,11.5-69.7,30.6-144.5,12.1c-18.5-4.6-60.6-14.8-85.9-33.1c9-5.7,17.8-11.9,25.8-19.4
				c16.5-15.7,25.7-36.5,34.2-57.9c26-1.1,51.9,1.3,66.5,2.5C1596.1,1800.7,1605,1870.5,1589.3,1887.8z"/>
			<path class="st6" d="M1326,2010.4c-12.7,19.9-24.4,31.1-48.1,34.2c-16.7,2.1-30.3-0.6-40.7-6.5c9.1-35.7,6-69.3,65-130.4
				c10.5,8.8,20.2,22.1,25.2,30.2C1346.1,1967.8,1340.5,1987.8,1326,2010.4z"/>
			<path class="st6" d="M1364.5,2368.1c-0.6-0.3-1.2-0.7-1.8-1c-16.8-8.8-36.7-13-53.7-22.3c-33.2-18.2-61.4-44.9-82.2-74.9
				c17.5-8.7,46.9-2.6,63.8-4.3c39.5-4,77.7-20.4,107.5-46.6c16.3-14.4,52.7-58.6,88.6-38.9
				C1545.6,2212.5,1464.5,2341,1364.5,2368.1z"/>
			<path class="st6" d="M1798.2,2352.1c-19.3,27-32.5,58.3-52.1,84.9l0,0c-73.2,4.2-146.5-4.5-219.4-13.2c-2.5-0.3-4.9-0.6-7.4-0.9
				c14.7-11.1,39.8-15.6,53.8-23.2c123.8-66.9,144-176.2,244.1-199c8.1-1.8,16.8-2.8,24.5,0.3c12.8,5.1,19.1,19.9,20,33.7
				C1864.6,2280.2,1824.7,2315,1798.2,2352.1z"/>
		</g>
		<g>
			<path class="st4" d="M2274.9,2133.6L2274.9,2133.6c-0.6,30.8-40.3,72.2-134.9,89.9c-29,5.4-245.6,16-208.1-44.2
				c17.2-27.6,63.3-47.3,87.5-69.3c43-39.1,95.8-100,141.5-106.8c15.9-2.4,33.6,1.7,44.6,13.2c0.7,0.8,1.5,1.6,2.1,2.4
				c9,11.1,11.3,26.4,14.5,40.8c3.1,14,6.9,27.3,18.2,35.3c1.7,1.2,3.4,2.2,5.2,3.1c5.4,2.8,11.3,4.8,16.2,8.5
				C2270.4,2113.2,2275.1,2122.8,2274.9,2133.6z"/>
			<path class="st5" d="M2222,2059.7c-19.8,25.6-41.6,38-66.3,51.5c-54.5,29.7-78.7,44.4-107.3,51.1c-17.1,4-20.4-5.7-18.9-10.1
				c5-14,89.7-58.5,103.9-67.1c30.6-18.5,45.8-42.3,69.7-66.5c0.7-0.8,1.5-1.5,2.2-2.1c0.7,0.8,1.5,1.6,2.1,2.4
				C2216.5,2030,2218.9,2045.2,2222,2059.7z"/>
			<path class="st5" d="M2274.9,2133.6L2274.9,2133.6c-16.9,21.8-58.3,31.1-79.2,38.8c-116.1,42.8-163.7,29.5-156.1,17.6
				c4.7-7.4,101.3-37.4,124.4-46c25.7-9.5,45.6-29.6,70-41.4c3.4-1.7,7.4-3.2,11.4-4.5c5.4,2.8,11.3,4.8,16.2,8.5
				C2270.4,2113.2,2275.1,2122.8,2274.9,2133.6z"/>
		</g>
		<path class="st7" d="M1369.7,2012c-63.5,71.2-15,130.2,57.3,110.8c99.2-26.7,97.3-134.1,47.5-150.4
			C1434.7,1959.4,1394.9,1983.7,1369.7,2012z"/>
		<path class="st8" d="M1441.6,1999.6c-59.1,13.5-97.5,89.7-49.2,99.2c14.5,2.9,29.4-3.7,41-12.9
			C1452.7,2070.4,1501.5,1985.9,1441.6,1999.6z"/>
		<g>
			<path class="st5" d="M2130.5,2689.5c-3.9,2.4-4.8,3-25.2,6.3c-14,2.3-37.2,6-76.8,12.4c-6.6,1.1-13,2-19.1,2.8
				c-54,6.9-95-0.2-169.6-80.6c-58.8-63.4-111.3-128.2-179-264.8c-6.4-12.9-13.8-41.6,2.1-52.3c18.6-12.6,43.4,18.9,58.6,28.1
				c92.7,55.7,236.7,14.8,311.5,101.6c7.6,8.8,13.8,18.4,19.1,28.5c20.7,39.2,28.3,86.5,50.3,125.3c3.5,6.2,7.3,12.1,11.6,17.8
				c8.9,11.6,19.7,22.1,25.2,35.6C2144.8,2663.8,2143,2682,2130.5,2689.5z"/>
			<path class="st4" d="M2105.3,2695.9c-14,2.3-37.2,6-76.8,12.4c-6.6,1.1-13,2-19.1,2.8c-51.3-35.5-100.2-74.4-146.3-116.3
				c-33.1-30-65.9-63.4-79.5-106c-1.7-5.4-3-11.6,0.2-16.3c17.5-26.1,107.1,61.6,130.3,82.4
				C2004.6,2636.6,2064.3,2664.6,2105.3,2695.9z"/>
			<path class="st4" d="M2102.4,2596.9c-42.4-13.1-93-48-119-61.5c-107.1-55.8-128.8-66.4-156.4-84.7c-16.4-10.8-10.4-22.2,6.7-24.1
				c55.1-5.9,149.6,19.3,218.4,44.9C2072.8,2510.8,2080.4,2558.1,2102.4,2596.9z"/>
		</g>
	</g>
</g>
</svg>
